Complete name                            : +18 Free Entry _VCD.Rip.By.[Ramukaka].mp4
Format                                   : MPEG-4
Format profile                           : Base Media
Codec ID                                 : isom
File size                                : 481 MiB
Duration                                 : 1h 27mn
Overall bit rate                         : 770 Kbps
Encoded date                             : UTC 2012-08-13 09:12:28
Tagged date                              : UTC 2012-08-13 09:12:28

Video
ID                                       : 1
Format                                   : AVC
Format/Info                              : Advanced Video Codec
Format profile                           : High@L1.2
Format settings, CABAC                   : Yes
Format settings, ReFrames                : 4 frames
Codec ID                                 : avc1
Codec ID/Info                            : Advanced Video Coding
Duration                                 : 1h 27mn
Bit rate                                 : 319 Kbps
Maximum bit rate                         : 1 464 Kbps
Width                                    : 352 pixels
Height                                   : 144 pixels
Display aspect ratio                     : 2.40:1
Frame rate mode                          : Constant
Frame rate                               : 25.000 fps
Color space                              : YUV
Chroma subsampling                       : 4:2:0
Bit depth                                : 8 bits
Scan type                                : Progressive
Bits/(Pixel*Frame)                       : 0.252
Stream size                              : 199 MiB (41%)
Writing library                          : x264 core 125 r2200 999b753
Encoding settings                        : 
Encoded date                             : UTC 2012-08-13 08:37:43
Tagged date                              : UTC 2012-08-13 09:13:00

Audio
ID                                       : 2
Format                                   : AC-3
Format/Info                              : Audio Coding 3
Mode extension                           : CM (complete main)
Format settings, Endianness              : Big
Codec ID                                 : ac-3
Duration                                 : 1h 27mn
Bit rate mode                            : Constant
Bit rate                                 : 448 Kbps
Channel(s)                               : 1 channel
Channel positions                        : Front: C
Sampling rate                            : 44.1 KHz
Bit depth                                : 16 bits
Compression mode                         : Lossy
Delay relative to video                  : -3ms
Stream size                              : 280 MiB (58%)
Encoded date                             : UTC 2012-08-13 09:12:54
Tagged date                              : UTC 2012-08-13 09:13:00














 
http://i.imgbox.com/adeJ07cY.png 
http://i.imgbox.com/abuM9stb.png 
http://i.imgbox.com/acv1U1F4.png 
http://i.imgbox.com/acrB8tNu.png 
http://i.imgbox.com/adzrQqz3.png 
http://i.imgbox.com/abqaUMHa.png